<?xml version="1.0" encoding="utf-8"?>
<!-- Generator: Adobe Illustrator 27.5.0, SVG Export Plug-In . SVG Version: 6.00 Build 0)  -->
<svg version="1.1" xmlns="http://www.w3.org/2000/svg" xmlns:xlink="http://www.w3.org/1999/xlink" x="0px" y="0px"
	 viewBox="0 0 750 500" style="enable-background:new 0 0 750 500;" xml:space="preserve">
<g id="OBJECT">
	<g>
		<g>
			<path style="fill:#EFEFEF;" d="M177.028,239.666c0,30.68-23.96,55.76-54.19,57.57c-0.16,0.01-0.32,0.02-0.48,0.03
				c-1,0.04-1.99,0.07-3,0.07c-0.83,0-1.66-0.02-2.48-0.05c-0.17-0.01-0.35-0.01-0.52-0.02c-30.45-1.57-54.67-26.76-54.67-57.6
				c0-31.85,25.82-57.67,57.67-57.67S177.028,207.816,177.028,239.666z"/>
		</g>
		<g>
			<polygon style="fill:#C2BEBE;" points="119.643,221.829 124.185,419.829 114.532,419.829 119.074,221.829 			"/>
			<polygon style="fill:#C2BEBE;" points="76.108,244.996 121.432,287.96 118.073,287.921 162.468,247.602 162.749,247.89 
				121.394,291.321 119.69,293.11 118.034,291.282 			"/>
			<polygon style="fill:#C2BEBE;" points="100.358,233.746 120.846,251.759 118.371,251.759 138.279,234.166 138.438,234.326 
				120.846,254.234 119.605,255.637 118.371,254.234 			"/>
		</g>
	</g>
	<path style="fill:#EFEFEF;" d="M621.293,100.959c0-0.13,0-0.261-0.004-0.388c-0.015-0.691-0.073-1.37-0.169-2.034
		c-0.001-0.005-0.002-0.01-0.003-0.015c-0.03-0.219-0.068-0.446-0.113-0.665c-0.005-0.028-0.014-0.054-0.019-0.082
		c-0.093-0.483-0.202-0.96-0.335-1.426c-0.003-0.01-0.004-0.021-0.007-0.031c-0.061-0.214-0.133-0.423-0.202-0.634
		c-0.032-0.095-0.058-0.193-0.092-0.287c-0.115-0.328-0.239-0.652-0.375-0.972h-0.001c-2.549-6.013-8.505-10.234-15.447-10.234
		c-2.945,0-5.71,0.767-8.116,2.102c-3.935-6.763-11.256-11.312-19.643-11.312c-8.599,0-16.076,4.781-19.932,11.827
		C555.091,68.403,539.604,54,520.745,54c-13.689,0-25.6,7.59-31.77,18.789c-0.002-0.002-0.005-0.004-0.007-0.006
		c-4.531-3.285-10.102-5.224-16.126-5.224c-13.379,0-24.527,9.555-26.997,22.219c-0.046,0.254-0.092,0.515-0.138,0.769
		c-0.208,1.269-0.331,2.562-0.362,3.878h-0.008v15.741h4.508h45.992h125.282v-6.789c0-0.001,0.001-0.002,0.001-0.004
		C621.235,102.583,621.293,101.781,621.293,100.959z"/>
	<g>
		<g>
			<g>
				<path style="fill:#62C7D3;" d="M629.148,419.205v30.29h-458v-41h455.01C627.588,411.865,628.608,415.455,629.148,419.205z"/>
				<path style="fill:#62C7D3;" d="M314.478,410.165c0,14.52-4.32,28.04-11.75,39.33h-119.83c-7.43-11.29-11.75-24.81-11.75-39.33
					c0-0.56,0.01-1.12,0.02-1.67c0.89-38.81,32.62-70,71.64-70s70.76,31.19,71.65,70
					C314.468,409.045,314.478,409.605,314.478,410.165z"/>
				<path style="fill:#62C7D3;" d="M462.102,397.646c0,19.142-5.695,36.966-15.49,51.849H288.638
					c-9.795-14.884-15.49-32.707-15.49-51.849c0-0.738,0.013-1.477,0.026-2.202c1.173-51.164,43.003-92.282,94.444-92.282
					s93.284,41.118,94.458,92.282C462.089,396.169,462.102,396.908,462.102,397.646z"/>
				<path style="fill:#62C7D3;" d="M572.769,417.016c0,11.991-3.568,23.156-9.703,32.48h-98.959
					c-6.136-9.324-9.703-20.489-9.703-32.48c0-0.462,0.008-0.925,0.016-1.379c0.735-32.05,26.939-57.808,59.162-57.808
					s58.435,25.757,59.17,57.808C572.761,416.091,572.769,416.553,572.769,417.016z"/>
				<path style="fill:#62C7D3;" d="M629.598,425.515c0,2.14-0.15,4.23-0.45,6.29c-0.93,6.46-3.27,12.47-6.71,17.69h-73.05
					c-4.53-6.88-7.16-15.12-7.16-23.98c0-0.34,0.01-0.68,0.01-1.01c0.13-5.67,1.34-11.07,3.43-16.01
					c6.64-15.67,22.16-26.67,40.24-26.67c18.09,0,33.61,11,40.25,26.67c1.43,3.37,2.45,6.96,2.99,10.71c0.25,1.73,0.4,3.5,0.44,5.3
					C629.598,424.835,629.598,425.175,629.598,425.515z"/>
			</g>
			<g>
				<path style="fill:#62C7D3;" d="M282.625,434.38v15.12H54.145v-20.46h226.99c0.34,0.8,0.63,1.62,0.87,2.46
					c0.19,0.65,0.35,1.32,0.47,2C282.535,433.79,282.585,434.09,282.625,434.38z"/>
				<path style="fill:#62C7D3;" d="M125.645,429.88c0,0.54-0.01,1.08-0.04,1.62c-0.03,0.67-0.07,1.34-0.14,2
					c-0.17,1.71-0.46,3.38-0.88,5c-0.32,1.37-0.74,2.7-1.24,4c-0.93,2.47-2.13,4.82-3.56,7h-59.78c-1.43-2.18-2.63-4.53-3.56-7
					c-0.49-1.3-0.91-2.63-1.24-4c-0.42-1.62-0.71-3.29-0.88-5c-0.07-0.66-0.11-1.33-0.14-2c-0.03-0.54-0.04-1.08-0.04-1.62
					c0-0.28,0.01-0.56,0.01-0.84c0.04-1.71,0.2-3.39,0.47-5.04c0.06-0.33,0.12-0.67,0.18-1c3.21-16.46,17.7-28.88,35.09-28.88
					c7.83,0,15.07,2.52,20.96,6.79c7.19,5.21,12.37,13.04,14.13,22.09c0.06,0.33,0.12,0.67,0.18,1c0.27,1.65,0.43,3.33,0.47,5.04
					C125.645,429.32,125.645,429.6,125.645,429.88z"/>
				<path style="fill:#62C7D3;" d="M199.294,423.63c0,9.549-2.841,18.441-7.728,25.866h-78.807
					c-4.886-7.425-7.728-16.316-7.728-25.866c0-0.368,0.007-0.737,0.013-1.098c0.585-25.524,21.453-46.036,47.115-46.036
					s46.536,20.512,47.121,46.036C199.287,422.893,199.294,423.261,199.294,423.63z"/>
				<path style="fill:#62C7D3;" d="M254.501,433.292c0,5.982-1.78,11.552-4.841,16.203h-49.367
					c-3.061-4.651-4.841-10.221-4.841-16.203c0-0.231,0.004-0.461,0.008-0.688c0.367-15.989,13.439-28.838,29.514-28.838
					c16.075,0,29.151,12.85,29.518,28.838C254.497,432.831,254.501,433.062,254.501,433.292z"/>
				<path style="fill:#62C7D3;" d="M282.85,437.533c0,1.068-0.075,2.11-0.224,3.138c-0.464,3.223-1.631,6.221-3.347,8.825h-36.442
					c-2.26-3.432-3.572-7.543-3.572-11.963c0-0.17,0.005-0.339,0.005-0.504c0.065-2.828,0.668-5.522,1.711-7.987
					c3.313-7.817,11.055-13.305,20.074-13.305c9.024,0,16.767,5.487,20.079,13.305c0.713,1.681,1.222,3.472,1.492,5.343
					c0.125,0.863,0.199,1.746,0.219,2.644C282.85,437.193,282.85,437.363,282.85,437.533z"/>
			</g>
			<g>
				<path style="fill:#62C7D3;" d="M695.855,429.04v20.46h-228.48v-15.12c0.04-0.29,0.09-0.59,0.15-0.88c0.12-0.68,0.28-1.35,0.47-2
					c0.24-0.84,0.53-1.66,0.87-2.46H695.855z"/>
				<path style="fill:#62C7D3;" d="M695.855,429.88c0,0.54-0.01,1.08-0.04,1.62c-0.03,0.67-0.07,1.34-0.14,2
					c-0.17,1.71-0.46,3.38-0.88,5c-0.33,1.37-0.75,2.7-1.24,4c-0.94,2.47-2.14,4.82-3.57,7h-59.77c-0.38-0.57-0.73-1.15-1.07-1.74
					c-0.98-1.67-1.81-3.43-2.5-5.26c-0.08-0.2-0.15-0.4-0.22-0.6c-0.4-1.11-0.74-2.24-1.02-3.4c-0.42-1.62-0.71-3.29-0.88-5
					c-0.07-0.66-0.11-1.33-0.14-2c-0.03-0.54-0.04-1.08-0.04-1.62c0-0.28,0.01-0.56,0.01-0.84c0.04-1.71,0.2-3.39,0.47-5.04
					c0.06-0.33,0.12-0.67,0.18-1c0.62-3.17,1.66-6.19,3.06-9c2.58-5.21,6.4-9.7,11.07-13.09c5.89-4.27,13.14-6.79,20.97-6.79
					c17.39,0,31.88,12.42,35.08,28.88c0.07,0.33,0.13,0.67,0.19,1c0.27,1.65,0.43,3.33,0.47,5.04
					C695.845,429.32,695.855,429.6,695.855,429.88z"/>
				<path style="fill:#62C7D3;" d="M550.704,423.63c0,9.549,2.841,18.441,7.728,25.866h78.807
					c4.886-7.425,7.728-16.316,7.728-25.866c0-0.368-0.007-0.737-0.013-1.098c-0.585-25.524-21.453-46.036-47.115-46.036
					c-25.662,0-46.536,20.512-47.121,46.036C550.711,422.893,550.704,423.261,550.704,423.63z"/>
				<path style="fill:#62C7D3;" d="M495.497,433.292c0,5.982,1.78,11.552,4.841,16.203h49.367
					c3.061-4.651,4.841-10.221,4.841-16.203c0-0.231-0.004-0.461-0.008-0.688c-0.367-15.989-13.438-28.838-29.514-28.838
					c-16.075,0-29.151,12.85-29.518,28.838C495.501,432.831,495.497,433.062,495.497,433.292z"/>
				<path style="fill:#62C7D3;" d="M467.148,437.533c0,1.068,0.075,2.11,0.225,3.138c0.464,3.223,1.631,6.221,3.347,8.825h36.442
					c2.26-3.432,3.572-7.543,3.572-11.963c0-0.17-0.005-0.339-0.005-0.504c-0.065-2.828-0.668-5.522-1.711-7.987
					c-3.312-7.817-11.055-13.305-20.074-13.305c-9.024,0-16.767,5.487-20.079,13.305c-0.713,1.681-1.222,3.472-1.492,5.343
					c-0.125,0.863-0.2,1.746-0.22,2.644C467.148,437.193,467.148,437.363,467.148,437.533z"/>
			</g>
		</g>
		<g>
			<rect x="54.145" y="438.5" style="fill:#FEFEFE;" width="641.71" height="4"/>
		</g>
		<g>
			<rect x="54.145" y="431.5" style="opacity:0.5;fill:#FEFEFE;" width="641.71" height="2"/>
		</g>
	</g>
	<g>
		<path style="fill:#E6E8FF;" d="M641.394,173.776c-0.183,0-0.351-0.1-0.438-0.26l-3.766-6.885l-6.886-3.766
			c-0.16-0.087-0.26-0.256-0.26-0.438s0.1-0.351,0.26-0.439l6.886-3.766l3.766-6.885c0.176-0.321,0.701-0.321,0.877,0l3.766,6.885
			l6.886,3.766c0.16,0.087,0.26,0.256,0.26,0.439s-0.1,0.351-0.26,0.438l-6.886,3.766l-3.766,6.885
			C641.745,173.676,641.577,173.776,641.394,173.776z M631.587,162.426l6.212,3.397c0.084,0.046,0.152,0.115,0.198,0.199
			l3.397,6.211l3.398-6.211c0.046-0.084,0.114-0.153,0.198-0.199l6.212-3.397l-6.212-3.397c-0.084-0.046-0.152-0.115-0.198-0.199
			l-3.398-6.212l-3.397,6.212c-0.046,0.084-0.114,0.153-0.198,0.199L631.587,162.426z"/>
		<path style="fill:#E6E8FF;" d="M658,145.5c-0.183,0-0.351-0.1-0.439-0.26l-3.766-6.885l-6.886-3.766
			c-0.16-0.087-0.26-0.256-0.26-0.439c0-0.183,0.1-0.351,0.26-0.438l6.886-3.766l3.766-6.885c0.176-0.321,0.701-0.321,0.877,0
			l3.766,6.885l6.886,3.766c0.16,0.087,0.26,0.256,0.26,0.438c0,0.183-0.1,0.351-0.26,0.439l-6.886,3.766l-3.766,6.885
			C658.351,145.4,658.183,145.5,658,145.5z M648.192,134.151l6.212,3.397c0.084,0.046,0.152,0.115,0.198,0.199l3.398,6.211
			l3.397-6.211c0.046-0.084,0.114-0.153,0.198-0.199l6.212-3.397l-6.212-3.397c-0.084-0.046-0.152-0.115-0.198-0.199L658,124.344
			l-3.398,6.211c-0.046,0.084-0.114,0.153-0.198,0.199L648.192,134.151z"/>
		<g>
			<g>
				<path style="fill:#E6E8FF;" d="M672.859,170.341c-0.276,0-0.5-0.224-0.5-0.5v-16.773c0-0.276,0.224-0.5,0.5-0.5
					c0.276,0,0.5,0.224,0.5,0.5v16.773C673.359,170.118,673.136,170.341,672.859,170.341z"/>
				<path style="fill:#E6E8FF;" d="M681.246,161.955h-16.773c-0.276,0-0.5-0.224-0.5-0.5s0.224-0.5,0.5-0.5h16.773
					c0.276,0,0.5,0.224,0.5,0.5S681.522,161.955,681.246,161.955z"/>
			</g>
			<g>
				<path style="fill:#E6E8FF;" d="M666.929,167.885c-0.128,0-0.256-0.049-0.354-0.146c-0.195-0.195-0.195-0.512,0-0.707
					l11.86-11.861c0.195-0.195,0.512-0.195,0.707,0s0.195,0.512,0,0.707l-11.86,11.861
					C667.185,167.836,667.057,167.885,666.929,167.885z"/>
				<path style="fill:#E6E8FF;" d="M678.789,167.885c-0.128,0-0.256-0.049-0.354-0.146l-11.86-11.861
					c-0.195-0.195-0.195-0.512,0-0.707s0.512-0.195,0.707,0l11.86,11.861c0.195,0.195,0.195,0.512,0,0.707
					C679.045,167.836,678.917,167.885,678.789,167.885z"/>
			</g>
		</g>
	</g>
	<g>
		<polygon style="fill:#66393B;" points="171.486,389.456 160.145,422.879 170.326,427.333 188.445,395.277 		"/>
		<path style="fill:#EDB200;" d="M189.993,252.333L191.66,330l-20.645,60.844c5.637,1.69,11.203,3.673,16.784,5.578l34.528-61.088
			l18-94.667L189.993,252.333z"/>
		<path style="fill:#613235;" d="M308.438,187.093c0,0-26.724,22.303-36.614,20.613c-9.89-1.691-8.149-12.37,2.795-16.463
			l30.784-8.507C305.402,182.736,306.739,184.907,308.438,187.093z"/>
		<g>
			<path style="fill:#1B193B;" d="M227.101,423.89l10.467,1.814c0,0,16.917,5.15,17.327,7.16c0.432,2.116-29.223-0.301-29.223-0.301
				C222.359,430.408,224.107,427.27,227.101,423.89z"/>
		</g>
		<g>
			<path style="fill:#1B193B;" d="M231.114,171.675c-0.43-3.011-0.7-6.046-0.784-9.087l-11.552-4.957
				c-2.537,1.011-5.215,2.187-6.69,4.486c-0.84,1.31-1.202,2.862-1.538,4.382c-0.582,2.63-1.121,5.27-1.636,7.914
				C216.644,175.962,223.917,174.505,231.114,171.675z"/>
		</g>
		<path style="fill:#613235;" d="M267.263,207.721c-18.31-1.482-49.65-15.544-45.501-23.861c4.07-8.16,11.969-2.946,11.969-2.946
			l38.093,10.28C290.405,198.219,281.462,209.747,267.263,207.721z"/>
		<polyline style="fill:#784346;" points="217.993,164.465 218.094,179.915 226.174,179.627 224.242,167.428 		"/>
		<path style="fill:#ED4224;" d="M272.988,191.664c-0.38-0.158-0.757-0.316-1.164-0.47l-38.093-10.28c0,0-7.899-5.214-11.969,2.946
			c-4.149,8.317,27.191,22.379,45.501,23.861c1.681,0.24,3.285,0.284,4.781,0.174C272.428,202.453,272.978,196.982,272.988,191.664z
			"/>
		<path style="fill:#FC542D;" d="M245.59,205.44c0.22,1.69,0.43,3.43,0.63,5.19c0.05,0.42,0.1,0.84,0.15,1.26
			c-0.14,1.16-0.54,2.23-1.69,3.06c-0.06,0.04-0.1,0.09-0.15,0.14L223.29,216v0.02l0.31,1.33c-3.23-0.42-6.47-0.69-9.73-0.93
			l-7.73,0.34l-1.03,1.9l0.37-2.86c-0.71-0.05-1.42-0.11-2.14-0.16c-5.67-5.12-3.98-14.9-3.55-21.86
			c1.03-6.1,3.69-11.93,10.14-13.19v-0.07l4.66-1.13l0.9-0.1c0.24,0.59,0.77,1.03,1.6,0.95c3.48-0.32,8.26,1.51,11.33-0.69
			c0.38-0.27,0.55-0.75,0.53-1.2l0.48-0.03l0.49,0.08l1.65,0.25c0,0,5.34,1.99,9.27,8.65l4.49,12.05
			C245.33,199.35,251.23,203.64,245.59,205.44z"/>
		<g>
			<polygon style="fill:#784346;" points="203.104,222.387 205.114,218.659 204.647,222.352 			"/>
			<path style="fill:#784346;" d="M213.874,216.421c3.253,0.243,6.491,0.513,9.73,0.931l-0.31-1.336L213.874,216.421z"/>
		</g>
		<g>
			<g>
				<path style="fill:#784346;" d="M212.704,165.186c0.04,4.921,4.07,8.872,8.99,8.833c5.396-0.048,7.513-0.456,8.34-2.346
					c0.285-0.641,0.417-1.475,0.473-2.516c0.064-1.116,0.043-2.466,0.02-4.128c-0.053-4.91-4.069-8.873-8.991-8.821
					C216.615,156.248,212.665,160.266,212.704,165.186z"/>
				<path style="fill:#1B193B;" d="M219.204,164.677c-0.11,0-0.22-0.048-0.294-0.142c-0.129-0.162-0.102-0.398,0.06-0.527
					c2.808-2.235,4.822-0.971,4.907-0.917c0.173,0.113,0.223,0.345,0.11,0.519c-0.112,0.172-0.343,0.223-0.517,0.111l0,0
					c-0.066-0.042-1.669-1.009-4.033,0.873C219.368,164.65,219.285,164.677,219.204,164.677z"/>
				<path style="fill:#1B193B;" d="M226.699,163.42c-0.097,0-0.194-0.038-0.268-0.112c-0.144-0.147-0.143-0.382,0.003-0.527
					c0.053-0.053,1.33-1.283,3.729-0.603c0.2,0.057,0.315,0.264,0.259,0.463c-0.056,0.2-0.263,0.317-0.463,0.259
					c-1.962-0.555-2.957,0.376-2.999,0.416C226.888,163.385,226.793,163.42,226.699,163.42z"/>
				<path style="fill:#47222C;" d="M225.639,169.341c-0.111,0-0.212-0.074-0.242-0.186c-0.035-0.133,0.044-0.271,0.178-0.306
					l1.889-0.499c-0.501-0.568-1.363-1.93-1.401-4.598c-0.002-0.138,0.108-0.251,0.247-0.253c0.13-0.027,0.251,0.108,0.253,0.247
					c0.049,3.411,1.525,4.519,1.54,4.529c0.078,0.057,0.117,0.154,0.1,0.249c-0.018,0.095-0.088,0.171-0.181,0.196l-2.319,0.613
					C225.681,169.339,225.66,169.341,225.639,169.341z"/>
			</g>
			<g>
				<g>
					<path style="fill:#1B193B;" d="M228.957,166.454c0.965,0,0.967-1.5,0-1.5C227.992,164.954,227.99,166.454,228.957,166.454
						L228.957,166.454z"/>
				</g>
			</g>
			<g>
				<g>
					<path style="fill:#1B193B;" d="M222.884,167.129c0.965,0,0.967-1.5,0-1.5C221.919,165.629,221.917,167.129,222.884,167.129
						L222.884,167.129z"/>
				</g>
			</g>
		</g>
		<g>
			<path style="fill:#1B193B;" d="M160.145,422.879l9.413,1.267c1.36,0.542,17.653,5.872,18.049,7.884
				c0.417,2.118-28.921-0.487-28.921-0.487C156.051,429.829,157.249,426.673,160.145,422.879z"/>
		</g>
		<path style="fill:#784346;" d="M234.3,188.35c-5.88,1.38-11.31,1.55-14.71-2.95c-1.74-2.29-3.6-4.44-5-6.02l5.17-0.58l6.29-0.31
			l3.14-0.15l0.24-0.01l0.49,0.07C232.56,180.8,239.08,187.22,234.3,188.35z"/>
		<g>
			<path style="fill:#1B193B;" d="M217.464,174.973c-0.286-1.662-0.43-3.348-0.386-5.034c-0.505,0.474-1.393,0.278-1.838-0.254
				c-0.444-0.531-0.534-1.275-0.498-1.967c0.02-0.376,0.084-0.779,0.349-1.046c0.623-0.628,1.666-0.037,2.326,0.552
				c-0.098-1.582-0.343-3.161-0.293-4.745c0.032-1.01,1.205-0.94,1.205-0.94c0.373-0.189,0.773-0.406,0.943-0.787
				c0.14-0.313,0.096-0.674,0.048-1.013c-0.082-0.587-0.163-1.174-0.245-1.761c-0.046-0.33-0.1-0.68-0.316-0.934
				c-0.217-0.256-0.557-0.366-0.883-0.442c-1.254-0.292-2.584-0.247-3.815,0.131c-2.59,0.795-4.553,2.979-5.797,5.385
				c-1.244,2.406-1.889,5.068-2.713,7.649c-0.365,1.143-0.77,2.273-1.208,3.39C208.867,174.744,213.217,175.25,217.464,174.973z"/>
		</g>
		<g>
			<path style="fill:#1B193B;" d="M218.641,157.678c2.18-1.176,4.843-1.244,7.072-0.181c2.229,1.063,3.98,3.236,4.65,5.77
				c0.407-2.03,0.034-4.23-1.012-5.972c-1.046-1.742-2.752-3.004-4.632-3.426c-0.749-0.168-1.517-0.208-2.281-0.231
				c-2.188-0.066-4.467,0.023-6.417,1.101c-1.949,1.078-3.468,3.403-3.079,5.734"/>
		</g>
		<g>
			<path style="fill:#1B193B;" d="M213.461,157.5c0.723-1.071,1.423-2.204,1.645-3.476s-0.139-2.726-1.191-3.475
				c-0.68-0.484-1.563-0.617-2.391-0.514c-0.828,0.103-1.613,0.422-2.368,0.777c-0.773,0.364-1.526,0.77-2.256,1.215
				c-0.573,0.349-1.14,0.731-1.558,1.256c-0.418,0.525-0.671,1.218-0.531,1.874c0.132,0.618,0.597,1.127,1.143,1.445
				c0.546,0.319,1.171,0.472,1.791,0.598c1.691,0.342,3.466,0.503,5.128,0.04"/>
		</g>
		<g>
			<g>
				<path style="fill:#302126;" d="M215.32,160.348c1.287,0,1.289-2,0-2C214.033,158.348,214.031,160.348,215.32,160.348
					L215.32,160.348z"/>
			</g>
		</g>
		<g>
			<path style="fill:#1B193B;" d="M216.075,160.639c0.158,1.225-0.134,2.463-0.532,3.637c-0.106,0.313-0.201,0.707,0.053,0.93
				c0.161,0.142,0.416,0.151,0.62,0.074c0.204-0.077,0.37-0.224,0.525-0.372c0.918-0.878,1.674-1.909,2.224-3.032
				c0.167,1.02-0.852,1.856-1.103,2.86c-0.016,0.064-0.028,0.134-0.001,0.194c0.086,0.187,0.384,0.078,0.546-0.056
				c1.15-0.962,2.158-2.077,2.986-3.303c0.019,0.832-0.787,1.532-0.756,2.364c0.12,0.075,0.276-0.017,0.384-0.108
				c2.074-1.74,3.333-4.33,3.384-6.962c0.515,0.768,1.03,1.536,1.546,2.305c0.283,0.422,0.567,0.845,0.918,1.218
				c0.893,0.948,2.149,1.499,3.368,2.024c-0.355-0.82-0.711-1.641-1.067-2.461c-0.349-0.805-0.71-1.628-1.328-2.271
				c-0.915-0.951-2.276-1.385-3.601-1.655c-1.583-0.322-3.197-0.144-4.808-0.053c-2.924,0.165-5.551,1.252-6.011,4.299"/>
		</g>
		<g>
			<path style="fill:#613235;" d="M308.906,186.033c0.808-0.457,1.678-0.819,2.51-1.268c0.885-0.478,1.577-0.876,2.438-1.057
				c0.04-0.011,0.08-0.021,0.121-0.031c-0.467-0.006-0.759,0.003-0.759,0.003s8.112-2.68,7.608-3.69
				c-0.504-1.011-7.032,1.766-7.032,1.766s6.948-5.527,6.267-6.484c-0.681-0.956-7.807,4.625-7.807,4.625s4.723-5.816,3.741-6.487
				c-0.982-0.67-11.643,10.17-11.827,10.518C304.002,184.235,307.975,185.695,308.906,186.033z"/>
			<path style="fill:#613235;" d="M313.319,183.215c0,0,5.886-0.81,5.75-0.274c-0.136,0.536-11.663,6.926-13.46,5.206
				c-1.797-1.72-1.443-4.219-1.443-4.219l4.712-1.708l4.456,0.847"/>
			<path style="fill:#613235;" d="M304.165,183.928c0.188-0.079,0.764-3.786,0.764-3.786s-0.132-1.132,1.472-2.589
				c1.604-1.457,4.245-1.765,4.871-2.297c0.626-0.532,0.865,1.383-1.405,2.504c-2.27,1.122-1.594,3.643-1.594,3.643L304.165,183.928
				z"/>
		</g>
		<g>
			<path style="fill:#FC542D;" d="M267.892,209.022c0.609-6.348,1.217-12.697,1.826-19.045c0.035-0.365,0.084-0.76,0.341-1.022
				c0.257-0.261,0.797-0.25,0.911,0.098c0.074,0.224-0.056,0.467-0.021,0.7c0.065,0.428,0.669,0.575,1.042,0.356
				c0.374-0.219,0.561-0.647,0.726-1.048c1.022,1.315,0.813,3.171,0.587,4.821c-0.721,5.256-1.112,10.558-1.17,15.863
				c-0.6-0.181-1.076-0.721-1.179-1.339c-0.268,0.678-1.19,0.999-1.821,0.633"/>
		</g>
		<polygon style="fill:#784346;" points="228.744,395.069 227.101,423.89 237.568,425.704 245.216,396.422 		"/>
		<g>
			<path style="fill:#EDB200;" d="M205.283,222.199c0.063-2.403,0.452-4.778,0.867-7.139c-0.8,0.01-1.5,0.02-2.05,0.03
				c-1.028,2.219-1.505,4.596-1.556,7.034L205.283,222.199z"/>
			<path style="fill:#EDB200;" d="M245.92,222.81c0.007,0.21-0.068,0.366-0.174,0.484l0.224,0.006l0.287,2.159l0.283,0.001
				c0.14-3.62,0.73-7.4-1.27-10.26c0.07,0.51,0.1,1.02,0.16,1.48C245.7,218.72,245.85,220.76,245.92,222.81z"/>
			<path style="fill:#EDB200;" d="M210.518,222.341c0.143-2.452,0.287-4.895,0.422-7.351c-1.19,0.01-2.29,0.03-3.27,0.04
				c-0.418,2.392-0.816,4.785-0.883,7.21L210.518,222.341z"/>
			<path style="fill:#EDB200;" d="M244.602,223.263c-0.101-0.116-0.176-0.26-0.182-0.453c-0.05-1.48-0.14-2.96-0.29-4.43
				c-0.08-0.76-0.02-2.48-0.4-3.54c-0.47-0.02-1.06-0.03-1.74-0.05c0.427,2.784,0.656,5.598,0.698,8.421L244.602,223.263z"/>
			<path style="fill:#EDB200;" d="M235.25,223.01l5.937,0.161c-0.044-2.82-0.272-5.61-0.707-8.391
				c-3.58-0.032-8.819-0.013-14.267,0.032l0.537,0.438L235.25,223.01z"/>
			<path style="fill:#EDB200;" d="M212.42,215.319c-0.13,2.354-0.267,4.708-0.404,7.063l3.936,0.107
				c-0.005-0.57-0.01-1.14-0.014-1.709C214.694,218.865,213.501,217.011,212.42,215.319z"/>
			<path style="fill:#EDB200;" d="M202.43,215.18c-2.403,1.006-3.34,3.8-4.082,6.83l2.695,0.073
				C201.094,219.709,201.54,217.377,202.43,215.18z"/>
			<path style="fill:#FFDA08;" d="M202.544,222.124c0.051-2.438,0.528-4.815,1.556-7.034c-0.97,0.01-1.52,0.02-1.52,0.02
				c-0.05,0.02-0.1,0.04-0.15,0.07c-0.89,2.197-1.336,4.529-1.387,6.903L202.544,222.124z"/>
			<path style="fill:#FFDA08;" d="M206.787,222.24c0.067-2.425,0.465-4.818,0.883-7.21c-0.54,0.01-1.05,0.02-1.52,0.03
				c-0.415,2.361-0.804,4.735-0.867,7.139L206.787,222.24z"/>
			<path style="fill:#FFDA08;" d="M212.016,222.382c0.137-2.354,0.274-4.708,0.404-7.063c-0.073-0.115-0.149-0.233-0.221-0.346
				c-0.425,0.002-0.848,0.008-1.259,0.017c-0.135,2.456-0.279,4.9-0.422,7.351L212.016,222.382z"/>
			<path style="fill:#FFDA08;" d="M215.938,220.78c0.004,0.57,0.009,1.14,0.014,1.709l1.118,0.031
				C216.689,221.936,216.312,221.357,215.938,220.78z"/>
			<path style="fill:#FFDA08;" d="M242.688,223.211c-0.042-2.824-0.271-5.637-0.698-8.421c-0.46,0-0.97-0.01-1.51-0.01
				c0.435,2.781,0.664,5.571,0.707,8.391L242.688,223.211z"/>
			<path style="fill:#FFDA08;" d="M244.42,222.81c0.006,0.193,0.081,0.337,0.182,0.453l1.144,0.031
				c0.107-0.118,0.181-0.274,0.174-0.484c-0.07-2.05-0.22-4.09-0.49-6.13c-0.06-0.46-0.09-0.97-0.16-1.48
				c-0.05-0.07-0.1-0.14-0.15-0.21c0-0.06-0.5-0.11-1.39-0.15c0.38,1.06,0.32,2.78,0.4,3.54
				C244.28,219.85,244.37,221.33,244.42,222.81z"/>
			<polygon style="fill:#FFDA08;" points="247.41,234.11 246.257,225.459 237.889,225.419 			"/>
			<path style="fill:#FFDA08;" d="M249.8,252.01c-8.21-4.63-19.34-11.05-21.05-12.76c-1.407-1.407-5.569-7.47-9.833-13.922
				l-1.697-0.008c-0.28,0.22-0.71,0.22-0.99,0l-18.65-0.09c0.268-1.058,0.506-2.153,0.768-3.22L198,222c0,0-11,14-8,38s42,78,42,78
				l-3.33,58.29c5.41,0.6,10.8,1.12,16.22,1.39L261,336L249.8,252.01z"/>
			<path style="fill:#FFDA08;" d="M216.23,225.32c-0.15-0.12-0.25-0.31-0.26-0.56c-0.007-0.757-0.012-1.514-0.018-2.271
				l-3.936-0.107c-0.026,0.439-0.05,0.879-0.076,1.318c-0.05,0.96-1.55,0.97-1.5,0c0.027-0.454,0.051-0.906,0.078-1.359
				l-3.731-0.102c-0.015,0.535-0.019,1.072,0.003,1.61c0.04,0.97-1.46,0.96-1.5,0c-0.024-0.552-0.021-1.102-0.007-1.652
				l-2.739-0.075c-0.012,0.573-0.008,1.148,0.026,1.726c0.05,0.97-1.45,0.96-1.5,0c-0.036-0.591-0.04-1.18-0.028-1.767l-2.695-0.073
				c-0.261,1.067-0.499,2.163-0.768,3.22L216.23,225.32z"/>
			<path style="fill:#FFDA08;" d="M245.746,223.294c-0.287,0.318-0.853,0.305-1.144-0.031l-1.914-0.052
				c0,0.016,0.001,0.033,0.002,0.049c0.01,0.97-1.49,0.96-1.5,0c0-0.03-0.002-0.06-0.003-0.089l-5.937-0.161l2.639,2.409l8.369,0.04
				l-0.287-2.159L245.746,223.294z"/>
			<path style="fill:#FFDA08;" d="M217.47,224.76c0,0.26-0.1,0.44-0.25,0.56l1.697,0.008c-0.487-0.737-0.974-1.478-1.46-2.219
				C217.461,223.659,217.465,224.211,217.47,224.76z"/>
			<path style="fill:#FFDA08;" d="M201.07,223.85c0.05,0.96,1.55,0.97,1.5,0c-0.034-0.578-0.038-1.153-0.026-1.726l-1.501-0.041
				C201.03,222.67,201.034,223.259,201.07,223.85z"/>
			<path style="fill:#FFDA08;" d="M205.29,223.85c0.04,0.96,1.54,0.97,1.5,0c-0.022-0.539-0.018-1.075-0.003-1.61l-1.504-0.041
				C205.269,222.748,205.266,223.298,205.29,223.85z"/>
			<path style="fill:#FFDA08;" d="M210.44,223.7c-0.05,0.97,1.45,0.96,1.5,0c0.026-0.439,0.05-0.879,0.076-1.318l-1.497-0.041
				C210.492,222.794,210.467,223.246,210.44,223.7z"/>
			<path style="fill:#FFDA08;" d="M217.22,225.32h-0.99C216.51,225.54,216.94,225.54,217.22,225.32z"/>
			<path style="fill:#FFDA08;" d="M217.457,223.109c-0.129-0.197-0.258-0.393-0.387-0.589l-1.118-0.031
				c0.006,0.757,0.012,1.514,0.018,2.271c0.01,0.25,0.11,0.44,0.26,0.56h0.99c0.15-0.12,0.25-0.3,0.25-0.56
				C217.465,224.211,217.461,223.659,217.457,223.109z"/>
			<path style="fill:#FFDA08;" d="M242.69,223.26c0-0.016-0.001-0.033-0.002-0.049l-1.501-0.041c0,0.03,0.002,0.06,0.003,0.089
				C241.2,224.22,242.7,224.23,242.69,223.26z"/>
			<path style="fill:#FFDA08;" d="M245.746,223.294l-1.144-0.031C244.893,223.599,245.459,223.612,245.746,223.294z"/>
			<path style="fill:#ED4224;" d="M215.89,214.92c0.49,0,0.99-0.01,1.5-0.02c1.03-0.01,2.08-0.02,3.15-0.03
				c0.49-0.01,0.99-0.01,1.5-0.02c1.389-0.014,2.787-0.027,4.173-0.038L205,197.5c0,0-0.25,5.5,3.75,12
				c0.82,1.328,2.027,3.245,3.449,5.473c0.081-0.001,0.159-0.003,0.241-0.003C213.54,214.95,214.69,214.94,215.89,214.92z"/>
			<path style="fill:#D9B902;" d="M220.698,222.618c-0.052-2.582-0.108-5.171-0.158-7.748c-1.07,0.01-2.12,0.02-3.15,0.03
				c0.023,2.538,0.041,5.087,0.062,7.63L220.698,222.618z"/>
			<path style="fill:#D9B902;" d="M215.89,214.92c-1.2,0.02-2.35,0.03-3.45,0.05c-0.006,0.116-0.014,0.233-0.02,0.349
				c1.081,1.691,2.274,3.546,3.518,5.461C215.923,218.827,215.908,216.873,215.89,214.92z"/>
			<path style="fill:#D9B902;" d="M222.199,222.658l13.051,0.352l-8.5-7.76l-0.537-0.438c-1.385,0.011-2.784,0.024-4.173,0.038
				C222.09,217.45,222.147,220.056,222.199,222.658z"/>
			<path style="fill:#EDB200;" d="M212.44,214.97c-0.082,0-0.16,0.003-0.241,0.003c0.072,0.113,0.148,0.231,0.221,0.346
				C212.426,215.203,212.434,215.086,212.44,214.97z"/>
			<path style="fill:#EDB200;" d="M217.07,222.52l0.382,0.01c-0.021-2.544-0.039-5.092-0.062-7.63c-0.51,0.01-1.01,0.02-1.5,0.02
				c0.018,1.953,0.033,3.907,0.048,5.86C216.312,221.357,216.689,221.936,217.07,222.52z"/>
			<path style="fill:#EDB200;" d="M222.199,222.658c-0.052-2.602-0.109-5.208-0.159-7.808c-0.51,0.01-1.01,0.01-1.5,0.02
				c0.05,2.577,0.106,5.166,0.158,7.748L222.199,222.658z"/>
			<path style="fill:#EDB200;" d="M218.917,225.328c4.264,6.452,8.427,12.515,9.833,13.922c1.71,1.71,12.84,8.13,21.05,12.76
				l-2.39-17.9l-9.521-8.691L218.917,225.328z"/>
			<path style="fill:#EDB200;" d="M235.25,223.01l-13.051-0.352c0.01,0.501,0.021,1.002,0.031,1.502c0.02,0.97-1.48,0.97-1.5,0
				c-0.01-0.513-0.021-1.028-0.032-1.542l-3.246-0.087c0.001,0.193,0.003,0.386,0.005,0.579c0.486,0.741,0.973,1.482,1.46,2.219
				l18.972,0.09L235.25,223.01z"/>
			<path style="fill:#EDB200;" d="M217.457,223.109c-0.002-0.193-0.003-0.386-0.005-0.579l-0.382-0.01
				C217.198,222.716,217.328,222.913,217.457,223.109z"/>
			<path style="fill:#EDB200;" d="M220.73,224.16c0.02,0.97,1.52,0.97,1.5,0c-0.01-0.5-0.02-1.001-0.031-1.502l-1.501-0.04
				C220.709,223.132,220.72,223.647,220.73,224.16z"/>
		</g>
		<path style="fill:#ED4224;" d="M246.22,210.63c-7.06-0.68-6.39-5.96-6.39-5.96c2.23,1.19,4.2,1.59,5.76,0.77
			C245.81,207.13,246.02,208.87,246.22,210.63z"/>
		<polygon style="fill:#66393B;" points="229.19,178.34 227,182.58 226.05,178.49 		"/>
		<path style="fill:#47222C;" d="M226.033,170.988c-2.033,0-3.153-1.128-3.213-1.189c-0.096-0.099-0.093-0.257,0.006-0.353
			c0.099-0.095,0.257-0.094,0.353,0.005c0.07,0.072,1.751,1.743,4.802,0.688c0.129-0.045,0.272,0.024,0.318,0.155
			c0.045,0.13-0.024,0.272-0.155,0.318C227.358,170.883,226.653,170.988,226.033,170.988z"/>
		<g>
			<path style="fill:#EFEFEF;" d="M171.833,425.167l-11.689-2.287l1.689-6.713l13.833,4C175.667,420.167,174,425.5,171.833,425.167z
				"/>
			<path style="fill:#FEFEFE;" d="M226.839,424.309L227,418.5l12.5,2.667c0,0,0.303,4.407-1.932,4.537
				C235.333,425.833,226.839,424.309,226.839,424.309z"/>
		</g>
	</g>
	<g>
		<g>
			<path style="fill:#1B193B;" d="M465.24,92.1H284.76c-7.7,0-14,6.3-14,14v301.98c0,7.7,6.3,14,14,14h180.48c7.7,0,14-6.3,14-14
				V217.84L461,207.15v177.517H289V113.333h172v78.297l18.24,5.06V106.1C479.24,98.4,472.94,92.1,465.24,92.1z"/>
			<path style="fill:#FEFEFE;" d="M444,191.83l-2.17-1.83c0,0-1,0.5-1.66,0.5c-0.67,0-3.34-0.67-4.84-2.83
				c-1.5-2.17-1.16-3.34-1.16-3.34s-1.17,0.34-2.34,0c-1.16-0.33-1-0.83-1-0.83l8.17-4.67l11.33,9.84l10.67,2.96v-78.297H289
				v271.333h172V207.15l-18.17-10.65L444,191.83z"/>
			<polygon style="fill:#131129;" points="461,207.15 479.24,217.84 479.24,196.69 461,191.63 			"/>
			<path style="fill:#EFEFEF;" d="M450.33,188.67L439,178.83l-8.17,4.67c0,0-0.16,0.5,1,0.83c1.17,0.34,2.34,0,2.34,0
				s-0.34,1.17,1.16,3.34c1.5,2.16,4.17,2.83,4.84,2.83c0.66,0,1.66-0.5,1.66-0.5l2.17,1.83l-1.17,4.67L461,207.15v-15.52
				L450.33,188.67z"/>
		</g>
		<path style="fill:#E6E8FF;" d="M333.044,262.333H321.75c-5.109,0-9.25-4.141-9.25-9.25l0,0c0-5.109,4.141-9.25,9.25-9.25h11.294
			c5.109,0,9.25,4.141,9.25,9.25l0,0C342.294,258.192,338.153,262.333,333.044,262.333z"/>
		<path style="fill:#E6E8FF;" d="M364.638,262.333h-11.294c-5.109,0-9.25-4.141-9.25-9.25l0,0c0-5.109,4.141-9.25,9.25-9.25h11.294
			c5.109,0,9.25,4.141,9.25,9.25l0,0C373.888,258.192,369.747,262.333,364.638,262.333z"/>
		<path style="fill:#E6E8FF;" d="M396.906,262.333h-11.294c-5.109,0-9.25-4.141-9.25-9.25l0,0c0-5.109,4.141-9.25,9.25-9.25h11.294
			c5.109,0,9.25,4.141,9.25,9.25l0,0C406.156,258.192,402.015,262.333,396.906,262.333z"/>
		<path style="fill:#E6E8FF;" d="M428.5,262.333h-11.294c-5.109,0-9.25-4.141-9.25-9.25l0,0c0-5.109,4.141-9.25,9.25-9.25H428.5
			c5.109,0,9.25,4.141,9.25,9.25l0,0C437.75,258.192,433.609,262.333,428.5,262.333z"/>
		<path style="fill:#E6E8FF;" d="M364.417,290.333H321.75c-5.109,0-9.25-4.141-9.25-9.25l0,0c0-5.109,4.141-9.25,9.25-9.25h42.667
			c5.109,0,9.25,4.141,9.25,9.25l0,0C373.667,286.192,369.525,290.333,364.417,290.333z"/>
		<path style="fill:#E6E8FF;" d="M429.5,235h-109c-5.109,0-9.25-4.141-9.25-9.25l0,0c0-5.109,4.141-9.25,9.25-9.25h109
			c5.109,0,9.25,4.141,9.25,9.25l0,0C438.75,230.859,434.609,235,429.5,235z"/>
		<path style="fill:#E6E8FF;" d="M430.75,290.333h-42.667c-5.109,0-9.25-4.141-9.25-9.25l0,0c0-5.109,4.141-9.25,9.25-9.25h42.667
			c5.109,0,9.25,4.141,9.25,9.25l0,0C440,286.192,435.859,290.333,430.75,290.333z"/>
		<path style="fill:#FC542D;" d="M403.25,333h-56.5c-5.109,0-9.25-4.141-9.25-9.25l0,0c0-5.109,4.141-9.25,9.25-9.25h56.5
			c5.109,0,9.25,4.141,9.25,9.25l0,0C412.5,328.859,408.359,333,403.25,333z"/>
		<text transform="matrix(1 0 0 1 345.65 328.1667)" style="fill:#FEFEFE; font-family:'Quicksand-Bold'; font-size:12px;">CONFIRM</text>
		<path style="fill:#FEFEFE;" d="M455.25,98.5c1.444-0.135,2.889-0.245,4.333-0.323c1.444-0.084,2.889-0.125,4.333-0.19l0.025,0
			l0.02,0.002c1.19,0.087,2.391,0.299,3.542,0.728c1.136,0.457,2.21,1.14,3.053,2.048c0.846,0.906,1.459,1.994,1.865,3.125
			c0.408,1.134,0.624,2.311,0.731,3.482l0.001,0.015l0.001,0.029l-0.24,10.5c-0.002,0.092-0.078,0.164-0.17,0.162
			c-0.083-0.002-0.15-0.064-0.161-0.144l-0.002-0.018c-0.117-0.875-0.202-1.75-0.283-2.625c-0.08-0.875-0.183-1.75-0.228-2.625
			l-0.172-2.625c-0.048-0.875-0.135-1.75-0.152-2.625l0.006,0.107c-0.309-2.139-1.073-4.175-2.478-5.505
			c-0.689-0.662-1.443-1.284-2.358-1.78c-0.9-0.529-1.954-0.864-3.047-1.063l0.046,0.002c-2.889-0.168-5.778-0.406-8.667-0.513
			c-0.046-0.002-0.082-0.04-0.08-0.086C455.171,98.538,455.209,98.504,455.25,98.5z"/>
		<g>
			<path style="fill:#FEFEFE;" d="M321.458,253.354c0,1.231-0.998,2.229-2.229,2.229c-1.231,0-2.229-0.998-2.229-2.229
				c0-1.231,0.998-2.229,2.229-2.229C320.46,251.125,321.458,252.123,321.458,253.354z"/>
			<path style="fill:#FEFEFE;" d="M327.254,253.354c0,1.231-0.998,2.229-2.229,2.229s-2.229-0.998-2.229-2.229
				c0-1.231,0.998-2.229,2.229-2.229S327.254,252.123,327.254,253.354z"/>
			<path style="fill:#FEFEFE;" d="M333.273,253.354c0,1.231-0.998,2.229-2.229,2.229c-1.231,0-2.229-0.998-2.229-2.229
				c0-1.231,0.998-2.229,2.229-2.229C332.275,251.125,333.273,252.123,333.273,253.354z"/>
			<path style="fill:#FEFEFE;" d="M338.549,253.354c0,1.231-0.998,2.229-2.229,2.229c-1.231,0-2.229-0.998-2.229-2.229
				c0-1.231,0.998-2.229,2.229-2.229C337.551,251.125,338.549,252.123,338.549,253.354z"/>
			<path style="fill:#FEFEFE;" d="M353.573,253.354c0,1.231-0.998,2.229-2.229,2.229c-1.231,0-2.229-0.998-2.229-2.229
				c0-1.231,0.998-2.229,2.229-2.229C352.575,251.125,353.573,252.123,353.573,253.354z"/>
			<path style="fill:#FEFEFE;" d="M359.369,253.354c0,1.231-0.998,2.229-2.229,2.229c-1.231,0-2.229-0.998-2.229-2.229
				c0-1.231,0.998-2.229,2.229-2.229C358.371,251.125,359.369,252.123,359.369,253.354z"/>
			<path style="fill:#FEFEFE;" d="M364.942,253.354c0,1.231-0.998,2.229-2.229,2.229s-2.229-0.998-2.229-2.229
				c0-1.231,0.998-2.229,2.229-2.229S364.942,252.123,364.942,253.354z"/>
			<path style="fill:#FEFEFE;" d="M369.994,253.354c0,1.231-0.998,2.229-2.229,2.229c-1.231,0-2.229-0.998-2.229-2.229
				c0-1.231,0.998-2.229,2.229-2.229C368.996,251.125,369.994,252.123,369.994,253.354z"/>
			<path style="fill:#FEFEFE;" d="M385.4,253.354c0,1.231-0.998,2.229-2.229,2.229c-1.231,0-2.229-0.998-2.229-2.229
				c0-1.231,0.998-2.229,2.229-2.229C384.402,251.125,385.4,252.123,385.4,253.354z"/>
			<path style="fill:#FEFEFE;" d="M391.047,253.354c0,1.231-0.998,2.229-2.229,2.229c-1.231,0-2.229-0.998-2.229-2.229
				c0-1.231,0.998-2.229,2.229-2.229C390.049,251.125,391.047,252.123,391.047,253.354z"/>
			<path style="fill:#FEFEFE;" d="M396.843,253.354c0,1.231-0.998,2.229-2.229,2.229s-2.229-0.998-2.229-2.229
				c0-1.231,0.998-2.229,2.229-2.229S396.843,252.123,396.843,253.354z"/>
			<path style="fill:#FEFEFE;" d="M402.416,253.354c0,1.231-0.998,2.229-2.229,2.229s-2.229-0.998-2.229-2.229
				c0-1.231,0.998-2.229,2.229-2.229S402.416,252.123,402.416,253.354z"/>
		</g>
		<g>
			<circle style="fill:#4150D9;" cx="375.167" cy="403.5" r="4.75"/>
			<path style="fill:#2D3AAD;" d="M347,407.667h-48c-2.301,0-4.167-1.865-4.167-4.167l0,0c0-2.301,1.866-4.167,4.167-4.167h48
				c2.301,0,4.167,1.865,4.167,4.167l0,0C351.167,405.801,349.301,407.667,347,407.667z"/>
			<path style="fill:#2D3AAD;" d="M451,407.667h-48c-2.301,0-4.167-1.865-4.167-4.167l0,0c0-2.301,1.866-4.167,4.167-4.167h48
				c2.301,0,4.167,1.865,4.167,4.167l0,0C455.167,405.801,453.301,407.667,451,407.667z"/>
		</g>
		<g>
			<text transform="matrix(1 0 0 1 319.3332 229.3335)" style="fill:#FEFEFE; font-family:'Quicksand-Bold'; font-size:12px;">NAME</text>
		</g>
		<g>
			<text transform="matrix(1 0 0 1 319.6665 285.3335)" style="fill:#FEFEFE; font-family:'Quicksand-Bold'; font-size:12px;">DATE</text>
		</g>
		<g>
			<text transform="matrix(1 0 0 1 384.9998 285.3335)" style="fill:#FEFEFE; font-family:'Quicksand-Bold'; font-size:12px;">CVV</text>
		</g>
		<g>
			<path style="fill:#E6E8FF;" d="M391.289,147.569v-7.7c0-7.517-4.344-15.548-16.536-15.548c-11.841,0-16.042,7.897-16.042,14.66
				v8.589h-1.086V176h34.749v-28.431H391.289z M364.635,138.98c0-3.263,1.315-8.737,10.119-8.737c7.042,0,10.613,3.238,10.613,9.625
				v7.7h-20.731V138.98z M376.962,164.384l1.962,4.639H375h-3.924l1.962-4.639l0.205-0.486c-1.408-0.663-2.39-2.084-2.39-3.743
				c0-2.29,1.856-4.146,4.146-4.146c2.29,0,4.146,1.856,4.146,4.146c0,1.66-0.981,3.081-2.39,3.743L376.962,164.384z"/>
		</g>
		<text transform="matrix(1 0 0 1 325.3342 205.2207)" style="fill:#387BFF; font-family:'Quicksand-Bold'; font-size:21.8217px;">PAYMENT</text>
		<g>
			<text transform="matrix(1 0 0 1 412.166 256.1191)" style="fill:#FEFEFE; font-family:'Quicksand-Bold'; font-size:8.2627px;">9308</text>
		</g>
	</g>
	<g>
		<g>
			<g>
				<path style="fill:#784346;" d="M274.931,250.842c0,0,9.992,4.034,10.13,4.787c0.138,0.752-1.692,0.424-1.639,0.939
					c0.052,0.516,1.682,1.104,1.396,2.089c-0.286,0.986-2.152,0.483-2.152,0.483s1.807,1.005,1.577,1.997
					c-0.23,0.992-2.454,0.164-2.454,0.164s1.518,0.575,1.442,1.699c-0.076,1.124-3.019,0.154-5.161-0.891
					c-2.142-1.045-6.064-4.281-5.416-6.413C273.3,253.564,274.931,250.842,274.931,250.842z"/>
				<path style="fill:#784346;" d="M234.241,235.545c-4.598-4.561-17.956-22.385-22.91-28.404
					c-4.953-6.019-11.667-16.322-2.73-22.97c9.854-6.795,39.149,44.212,39.149,44.212l27.18,22.46l-1.921,6.621
					C273.009,257.463,238.839,240.106,234.241,235.545z"/>
				<path style="fill:#FC613C;" d="M240.918,229.762c1.804-1.317,3.526-2.704,5.221-4.118
					c-6.264-10.498-29.073-47.311-37.538-41.474c-8.936,6.648-2.223,16.951,2.73,22.97c4.864,5.91,17.825,23.192,22.645,28.134
					C236.07,233.195,238.585,231.464,240.918,229.762z"/>
				<path style="fill:#784346;" d="M274.322,250.909c2.193-0.844,4.274-1.912,5.567-0.45c1.293,1.462,3.711,1.743,3.711,1.743
					s-0.169,1.181-1.574,1.181c-1.406,0-2.362-1.237-2.362-1.237l-3.037,1.631L274.322,250.909z"/>
			</g>
		</g>
		<g>
			<path style="fill:#ED4224;" d="M247.687,226.339c-4.331,2.928-8.486,6.115-12.437,9.539c-0.534,0.463-1.198,0.963-1.877,0.769
				c-1.012-0.289-1.023-1.704-0.819-2.736c-0.632,0.091-1.305,0.177-1.885-0.09c-0.58-0.267-0.975-1.033-0.623-1.566
				c0.261-0.395,0.784-0.492,1.242-0.61c1.296-0.334,2.437-1.087,3.552-1.828c3.459-2.298,6.917-4.596,10.376-6.894
				c0.083,0.391-0.074,0.823-0.388,1.069c0.577,0.244,1.243,0.024,1.863,0.116c0.62,0.092,1.211,0.887,0.739,1.299"/>
		</g>
	</g>
	<g>
		<g>
			<path style="fill:#F58C62;" d="M489.95,192.835l-43.861-9.498l-2.325,4.785c0,0,38.992,24.775,51.841,20.938
				C499.037,205.429,489.95,192.835,489.95,192.835z"/>
			<g>
				<path style="fill:#F58C62;" d="M446.026,183.281c0,0-5.614-4.932-6.27-5.174c-0.656-0.241-1.428-0.256-2.482,0.339
					c-1.053,0.594-4.977,4.183-6.127,4.374c-1.15,0.19,0.11,1.17,2.759,0.107c2.65-1.062,3.87-2.978,4.737-2.332
					c0.186,0.183-3.739,3.288-3.242,3.938c0.497,0.65,2.051,2.498,3.67,1.768c1.619-0.73,1.587-1.576,1.587-1.576
					s-0.332,1.727,0.572,2.694c0.904,0.967,3.447,0.528,3.447,0.528L446.026,183.281z"/>
				<path style="fill:#F58C62;" d="M439.573,183.163c0,0-2.329,3.349-1.718,4c0.612,0.651,2.078,1.78,2.942,1.345
					c0.864-0.435-0.325-1.118-0.325-1.118l-1.042-0.547l1.825-2.602L439.573,183.163z"/>
				<path style="fill:#F05E4A;" d="M438.206,186.181c0.801-0.885,1.602-1.769,2.403-2.654c0.216-0.238-0.137-0.593-0.354-0.354
					c-0.801,0.885-1.602,1.769-2.403,2.654C437.637,186.066,437.99,186.421,438.206,186.181L438.206,186.181z"/>
				<path style="fill:#F05E4A;" d="M436.683,184.696c0.89-0.904,1.779-1.807,2.669-2.711c0.226-0.23-0.127-0.583-0.354-0.354
					c-0.889,0.904-1.779,1.807-2.668,2.711C436.104,184.572,436.457,184.925,436.683,184.696L436.683,184.696z"/>
			</g>
			<path style="fill:#DBD7D7;" d="M530.587,173.095l-40.638,19.739l-37.489-8.154c0.07,4.304-0.067,8.63-0.315,12.939
				c12.32,5.04,38.532,15.466,44.147,15.29c7.4-0.232,35.038-11.486,35.038-11.486L530.587,173.095z"/>
			<polygon style="fill:#F58C62;" points="519.114,226.448 502.105,419.575 512.905,421.375 566.774,233.023 			"/>
			<path style="fill:#ED4224;" d="M562.331,249.827l-16.44,63.03c0.01,0,0.01,0,0,0.01l-0.41,1.59l-3.31,12.69l-0.37,1.43
				l-3.78,14.47l-0.34,1.33l-3.99,15.28l-0.36,1.38l-4.62,17.73l-0.36,1.38l-9.331,37.187l-20-3.333
				c0,0,7.331-112.243,12.021-146.003c2.05-14.76,3.91-26.2,4.96-32.43c0.57-3.39,0.91-5.24,0.91-5.24l6.14,3.07l9.17,4.59
				l0.69,0.34c0,0-0.25,1.9-0.69,5.29c-0.29,2.16-0.66,4.92-1.09,8.17l1.09-0.07L562.331,249.827z"/>
			<polygon style="fill:#FEA574;" points="516.208,236.94 564.878,424.606 575.657,422.684 563.317,227.17 			"/>
			<path style="fill:#FC542D;" d="M579.183,416.17l-7.8,1.49l-2.95,0.56l-8.41,1.61c0,0-27.74-99.91-35.56-146.73l-0.15-0.64
				c0.19-11.1,10.33-36.3,10.33-36.3l34.1-5.13l2.61,22.76l0.06,1.56l0.79,16.97l0.06,1.44l0.74,16.19l0.08,1.5l0.69,15.23
				l0.08,1.53l0.83,18.13l0.07,1.46l0.67,14.7l0.07,1.46l0.9,19.46l0.06,1.46l0.77,16.57l0.06,1.41L579.183,416.17z"/>
			<path style="fill:#4150D9;" d="M532.221,231.747v42.53l-10.62-3.1l-1.22-0.35l-6.39-1.87c-1.15-0.21-2.13-0.53-2.95-0.96
				c2.05-14.76,3.91-26.2,4.96-32.43c0.15-0.32,0.31-0.65,0.46-0.98l6.22-1.12l0.37-0.07l0.9-0.16L532.221,231.747z"/>
			<g>
				<path style="fill:#1B193B;" d="M500.458,421.053c-1.526-0.041-16.829-0.405-18.023,1.347
					c-1.257,1.845,27.982,11.373,27.982,11.373l2.099-8.84l1.542-6.493l-12.81-1.74L500.458,421.053z"/>
				<path style="fill:#1B193B;" d="M576.482,426.168l-0.723-6.634l-12.653,2.652l0.714,4.366c-1.451,0.473-15.993,5.256-16.53,7.307
					c-0.566,2.159,30.175,1.342,30.175,1.342L576.482,426.168z"/>
			</g>
			<path style="fill:#EFEFEF;" d="M572.77,247.3l-61.56-0.8l6.24-31.5l2.77-14l0.59-3c0,0,2.63-24.75,11.51-25.22
				c5.63-0.72,5.61-1.31,11.52-1.3l1.56,0.22c0,0,0.47-0.07,1.2-0.14c0.11,0,0.21,0,0.32,0.01c0.78,0.04,1.54,0.12,2.29,0.2
				c0.07,0.29,0.26,0.54,0.62,0.6c0.35,0.06,0.68,0.14,1.02,0.22c0.1,0.12,0.24,0.23,0.43,0.31c2.71,1.24,5.36,2.59,8.06,3.84
				c0.79,3.32,2.69,13.04,4.82,24.26c0.86,4.53,1.76,9.31,2.64,14C569.91,231.67,572.77,247.3,572.77,247.3z"/>
			<path style="fill:#FFDA08;" d="M566.8,215h-49.35l2.77-14h43.94C565.02,205.53,565.92,210.31,566.8,215z"/>
			<path style="fill:#FEA574;" d="M545.146,173.889c0.599-0.971,1.297-1.861,2.233-2.557l-1.651-0.215
				c-4.673-0.007-9.013,0.562-13.408,1.663C536.124,174.615,540.614,174.682,545.146,173.889z"/>
			<g>
				<g>
					<g>
						<polygon style="fill:#FEA574;" points="545.14,171.52 543.77,171.67 536.85,172.45 536.9,169.79 536.95,166.77 537.06,160.43 
							543.03,156.66 544.61,167.78 						"/>
						<path style="fill:#FEA574;" d="M544.911,165.197c-1.13,0.7-2.42,1.16-3.83,1.32c-5.54,0.62-7.77,0.46-8.85-1.37
							c-0.37-0.63-0.61-1.46-0.79-2.53c-0.21-1.13-0.35-2.52-0.53-4.23c-0.29-2.6,0.54-5.07,2.09-6.93h0.01
							c0.32-0.38,0.67-0.74,1.05-1.07c0.01-0.01,0.02-0.02,0.03-0.02c1.35-1.16,3.05-1.93,4.95-2.14c1.71-0.19,3.36,0.1,4.82,0.76
							c2.86,1.29,4.98,4.02,5.36,7.36C549.621,159.987,547.841,163.377,544.911,165.197z"/>
						<polyline style="fill:#FEA574;" points="531.097,156.971 528.218,161.317 532.087,161.839 531.143,157.166 						"/>
						<path style="fill:#FEA574;" d="M542.098,156.756c0.086-0.01,2.175-2.753,3.56-0.017c1.385,2.736-0.86,5.38-3.424,4.644"/>
						<path style="fill:#2E2F38;" d="M537.26,156.089c-0.067,0-0.136-0.018-0.197-0.056c-2.667-1.646-4.197-0.449-4.261-0.397
							c-0.158,0.128-0.397,0.108-0.526-0.052c-0.131-0.159-0.11-0.393,0.048-0.525c0.079-0.067,1.983-1.605,5.134,0.335
							c0.176,0.109,0.231,0.34,0.122,0.516C537.508,156.026,537.385,156.089,537.26,156.089z"/>
					</g>
				</g>
				<g>
					<path style="fill:#1B193B;" d="M544.911,165.197c-0.08,0.03-0.16,0.06-0.24,0.09c-0.28-0.62-0.42-1.3-0.42-1.97
						c0-0.25,0.02-0.5,0.15-0.7c0.15-0.22,0.4-0.35,0.63-0.47c0.99-0.53,1.95-1.31,2.17-2.41c0.21-1.11-0.52-2.32-1.6-2.64
						c-1.09-0.32-2.36,0.29-2.79,1.33c-0.24,0.6-0.23,1.29-0.53,1.87c-0.3,0.57-1.18,0.93-1.58,0.43c0.34-1.82,0.68-3.64,1.02-5.46
						c0.05-0.22,0.09-0.46-0.01-0.66c-0.1-0.23-0.34-0.35-0.57-0.44c-0.76-0.31-1.58-0.45-2.39-0.42c-0.46,0.02-0.92,0.09-1.37-0.01
						c-0.45-0.1-0.88-0.43-0.93-0.89c-0.02-0.3,0.12-0.65-0.07-0.89c-0.12-0.16-0.34-0.2-0.53-0.22c-0.96-0.14-1.92-0.2-2.88-0.18
						l0.31-0.07c-0.09,0-0.18-0.01-0.27-0.03h-0.01c-0.09-0.01-0.18-0.02-0.28-0.03c0.4-0.41,0.85-0.76,1.34-1.04
						c0.01-0.01,0.02-0.02,0.03-0.02c2.62-1.55,6.3-1.54,9.77-1.38c2.86,1.29,4.98,4.02,5.36,7.36
						C549.621,159.987,547.841,163.377,544.911,165.197z"/>
				</g>
				<path style="fill:#F05E4A;" d="M532.74,163.829c-0.434,0-0.837-0.091-1.216-0.272c-0.124-0.06-0.177-0.209-0.117-0.333
					c0.06-0.125,0.21-0.177,0.334-0.118c0.694,0.334,1.478,0.298,2.466-0.112c0.127-0.052,0.274,0.008,0.326,0.135
					c0.054,0.127-0.007,0.274-0.135,0.327C533.799,163.705,533.249,163.829,532.74,163.829z"/>
				<path style="fill:#2E2F38;" d="M533.742,157.243c-0.007,0-0.013,0-0.02,0c-0.965,0-0.967,1.5,0,1.5c0.007,0,0.013,0,0.02,0
					C534.707,158.743,534.709,157.243,533.742,157.243L533.742,157.243z"/>
				<path style="fill:#F05E4A;" d="M544.991,160.705c-0.096,0-0.188-0.056-0.229-0.15c-0.056-0.126,0.002-0.274,0.128-0.329
					c0.105-0.046,1.008-0.482,0.578-1.507c-0.154-0.368-0.335-0.402-0.395-0.414c-0.344-0.064-0.842,0.343-0.986,0.491
					c-0.095,0.099-0.253,0.102-0.354,0.005c-0.099-0.096-0.102-0.254-0.006-0.353c0.076-0.079,0.771-0.761,1.438-0.635
					c0.336,0.063,0.593,0.303,0.764,0.712c0.505,1.202-0.328,1.938-0.839,2.159C545.059,160.698,545.024,160.705,544.991,160.705z"
					/>
				<path style="fill:#2E2F38;" d="M536.616,158.268c-0.018,0-0.038-0.001-0.058-0.004l-4.021-0.625
					c-0.205-0.032-0.345-0.224-0.313-0.428c0.031-0.204,0.216-0.344,0.428-0.313l4.021,0.625c0.205,0.032,0.345,0.224,0.313,0.428
					C536.958,158.135,536.799,158.268,536.616,158.268z"/>
			</g>
			<path style="fill:#1B193B;" d="M544.911,165.197c0.049-0.023,0.099-0.047,0.15-0.072c2.206-1.089,5.692-2.499,6.563-4.312
				c0.872-1.813,0.563-6.625,0.563-6.625l-20.125-4.438c0,0-2.125,1.875-1.188,3.188s2.438,1.438,2.438,1.438L532.875,152
				c0,0,2.875,2.25,5.313,3.25s6.438,1.688,6.438,1.688l3.438,0.688l-0.25,3.438"/>
			<path style="fill:#FC542D;" d="M552.687,157l-33.625-7c0,0-0.25-1.375,2.5-0.75s31,6.625,31,6.625L552.687,157z"/>
			<path style="fill:#FC542D;" d="M530.5,151.625c0,0,2.25-4.438,3-5.563s2.75-3.563,11.688-1.188s7.5,12.125,7.5,12.125
				L530.5,151.625z"/>
			<polygon style="fill:#FE6B75;" points="571.383,417.66 568.433,418.22 548.653,247.4 556.673,246.6 			"/>
			<path style="fill:#F58C62;" d="M536.9,169.79l0.05-3.02c0.05,0.01,0.11,0.01,0.17,0.01c0.74,0.02,2.19-0.04,3.5-0.66
				C542.15,165.41,539.44,168.69,536.9,169.79z"/>
			<polygon style="fill:#EFEFEF;" points="532.125,173.625 532.125,169.75 550,170 550,175.125 531.875,174.875 			"/>
		</g>
		<g>
			<path style="fill:#25319C;" d="M476.339,385.688l-28.216-136.106c-1.177-5.678,2.472-11.236,8.15-12.413l210.524-43.643
				c5.678-1.177,11.236,2.472,12.413,8.15l28.216,136.106c1.177,5.678-2.472,11.236-8.15,12.413l-210.524,43.643
				C483.074,395.015,477.516,391.366,476.339,385.688z"/>
			<path style="fill:#2D3AAD;" d="M706.95,343.66c-48.19-20.05-213.35-84.95-257.19-102.16c1.48-2.16,3.75-3.76,6.51-4.34
				l73.67-15.27l61.77-12.81l75.09-15.56c5.68-1.17,11.23,2.48,12.41,8.16l28.21,136.11C707.85,339.83,707.65,341.85,706.95,343.66z
				"/>
			<g>
				
					<rect x="524.284" y="229.183" transform="matrix(0.9793 -0.2024 0.2024 0.9793 -35.6812 125.4216)" style="fill:#4150D9;" width="142.311" height="16"/>
			</g>
			<g>
				<path style="fill:#FFDA08;" d="M518.641,294.571l0.708,3.427c0.18,0.872,0.256,1.734,0.228,2.587
					c-0.01,0.349-0.031,0.691-0.082,1.038c-0.547,4.667-4.02,8.663-8.887,9.669l-16.971,3.508c-4.857,1.004-9.63-1.288-11.992-5.354
					c-0.184-0.299-0.339-0.604-0.487-0.921c-0.364-0.772-0.636-1.594-0.816-2.466l-0.708-3.428
					c-0.168-0.813-0.244-1.624-0.235-2.423c0.01-0.349,0.021-0.689,0.062-1.034c0.501-4.74,3.997-8.822,8.913-9.838l16.971-3.508
					c4.926-1.018,9.754,1.344,12.083,5.498c0.174,0.301,0.329,0.606,0.467,0.925C518.22,292.983,518.472,293.758,518.641,294.571z"
					/>
				<g>
					<g>
						<path style="fill:#387BFF;" d="M517.896,292.253L479.4,300.21c0.01-0.349,0.021-0.689,0.062-1.034l37.967-7.847
							C517.604,291.63,517.759,291.935,517.896,292.253z"/>
					</g>
					<g>
						<g>
							<path style="fill:#387BFF;" d="M519.577,300.586c-0.01,0.349-0.031,0.691-0.082,1.038l-37.85,7.823
								c-0.184-0.299-0.339-0.604-0.487-0.921L519.577,300.586z"/>
						</g>
					</g>
					<g>
						
							<rect x="491.897" y="288.782" transform="matrix(0.9793 -0.2024 0.2024 0.9793 -50.8902 105.909)" style="fill:#387BFF;" width="1" height="26"/>
					</g>
					<g>
						
							<rect x="506.743" y="285.713" transform="matrix(0.9793 -0.2024 0.2024 0.9793 -49.962 108.8509)" style="fill:#387BFF;" width="1" height="26"/>
					</g>
				</g>
			</g>
			<g>
				<g>
					
						<text transform="matrix(0.9773 -0.212 0.212 0.9773 643.2128 307.463)" style="fill:#FEFEFE; font-family:'Quicksand-Bold'; font-size:16px;">9308</text>
				</g>
				<g>
					
						<text transform="matrix(0.9773 -0.212 0.212 0.9773 592.9643 317.7133)" style="fill:#FEFEFE; font-family:'Quicksand-Bold'; font-size:16px;">2479</text>
				</g>
				<g>
					
						<text transform="matrix(0.9773 -0.212 0.212 0.9773 539.2122 329.5392)" style="fill:#FEFEFE; font-family:'Quicksand-Bold'; font-size:16px;">2467</text>
				</g>
				<g>
					
						<text transform="matrix(0.9773 -0.212 0.212 0.9773 484.0758 341.245)" style="fill:#FEFEFE; font-family:'Quicksand-Bold'; font-size:16px;">4785</text>
				</g>
			</g>
			<path id="SVGID_x5F_1_x5F_" style="fill:none;" d="M498,377l184.852-38.277"/>
			<text>			<textPath  xlink:href="#SVGID_x5F_1_x5F_" startOffset="8.374%">
<tspan  style="fill:#FEFEFE; font-family:'Quicksand-Bold'; font-size:14px;">SURNAME NAME</tspan>			</textPath>
</text>
			<path id="SVGID_x5F_00000118354639327197898500000015904036384384939913_x5F_" style="fill:none;" d="M496.667,360.333
				l184.852-38.277"/>
			<text>			<textPath  xlink:href="#SVGID_x5F_00000118354639327197898500000015904036384384939913_x5F_" startOffset="8.374%">
<tspan  style="fill:#FEFEFE; font-family:'Quicksand-Regular'; font-size:12px;">20/17       20/23</tspan>			</textPath>
</text>
		</g>
		<path style="fill:#25319C;" d="M597.38,226.75c-7.76,5.13-46.63,7.13-46.63,7.13l-1.25-5.63l-8-2.13c0,0-0.5,1.13-1.62,1.76
			c-1.13,0.62-2.88-1-2.88-1s-1,0.74-4.12-1.38c-1.8-1.22-2.59-2.63-2.94-3.61l61.77-12.81C595.98,213.83,603,223.03,597.38,226.75z
			"/>
		<g>
			<g>
				<path style="fill:#FEA574;" d="M585.981,208.878l-43.92,9.223l0.439,6.11c0,0,45.097,5.918,55.263-2.828
					C599.416,216.669,585.981,208.878,585.981,208.878z"/>
				<path style="fill:#EFEFEF;" d="M546.986,172.208c-7.306,6.054,0.219,17.882,5.115,23.254
					c4.896,5.371,14.718,12.393,20.049,15.838c-10.563,2.251-23.173,5.399-23.173,5.399l3.389,12.937c0,0,37.513-0.397,45.758-7.576
					c1.335-2.318,0.458-4.76,0.197-5.704C595.927,207.699,557.586,162.951,546.986,172.208z"/>
			</g>
			<g>
				<path style="fill:#FEA574;" d="M536.881,215.133c-0.684-0.142-1.45-0.042-2.404,0.701c-0.644,0.502-3.113,3.884-3.029,4.681
					c0.084,0.797,4.771,4.485,5.967,2.823c1.118-0.719,1.311-1.367,1.337-1.646c0.007,0.425,0.098,1.748,0.963,2.434
					c1.037,0.823,3.487,0.013,3.487,0.013l0.645-4.814C543.847,219.324,537.566,215.275,536.881,215.133z"/>
				<path style="fill:#FEA574;" d="M537.446,220.16c0,0-1.809,3.656-1.108,4.209c0.701,0.553,2.318,1.453,3.108,0.896
					c0.79-0.558-0.486-1.058-0.486-1.058l-1.112-0.387l1.421-2.843L537.446,220.16z"/>
				<path style="fill:#F05E4A;" d="M536.555,223.325c0.661-0.993,1.323-1.986,1.984-2.98c0.179-0.269-0.254-0.519-0.432-0.252
					c-0.661,0.993-1.323,1.986-1.984,2.98C535.945,223.342,536.378,223.592,536.555,223.325L536.555,223.325z"/>
				<path style="fill:#F05E4A;" d="M534.83,222.081c0.746-1.025,1.493-2.05,2.239-3.075c0.19-0.26-0.244-0.51-0.432-0.252
					c-0.746,1.025-1.493,2.05-2.239,3.075C534.208,222.089,534.642,222.339,534.83,222.081L534.83,222.081z"/>
				<path style="fill:#F05E4A;" d="M533.205,220.956c0.746-1.025,1.493-2.05,2.239-3.075c0.19-0.26-0.244-0.51-0.432-0.252
					c-0.746,1.025-1.493,2.05-2.239,3.075C532.583,220.964,533.017,221.214,533.205,220.956L533.205,220.956z"/>
			</g>
		</g>
	</g>
	<g>
		<polygon style="fill:#E6E8FF;" points="177.576,115.955 179.916,120.234 184.195,122.574 179.916,124.914 177.576,129.193 
			175.236,124.914 170.957,122.574 175.236,120.234 		"/>
		<polygon style="fill:#E6E8FF;" points="159.755,116.809 154.59,110.732 146.963,108.402 153.04,103.237 155.369,95.61 
			160.535,101.687 168.162,104.017 162.085,109.182 		"/>
		<polygon style="fill:#E6E8FF;" points="183.834,102.788 181,93 173.334,86.288 183.121,83.454 189.834,75.788 192.667,85.575 
			200.334,92.288 190.546,95.121 		"/>
	</g>
</g>
</svg>
